<svg xmlns="http://www.w3.org/2000/svg" width="22" height="22" fill="none" preserveAspectRatio="none" viewBox="0 0 22 22"><mask id="beenhere_svg__a" width="22" height="22" x="0" y="0" maskUnits="userSpaceOnUse" style="mask-type:alpha"><path fill="#D9D9D9" d="M.755.467h20.719v20.719H.755z"></path></mask><g mask="url(#beenhere_svg__a)"><path fill="#1C1B1F" d="M11.115 20.323 4.899 15.66a1.714 1.714 0 0 1-.69-1.381V3.92c0-.475.169-.881.507-1.22a1.663 1.663 0 0 1 1.22-.507h10.359c.475 0 .881.17 1.22.508.337.338.506.744.506 1.219v10.36a1.714 1.714 0 0 1-.69 1.38zm0-2.158 5.18-3.885V3.92H5.935v10.36zm-.906-4.749 4.877-4.877-1.209-1.252-3.668 3.669-1.813-1.813-1.252 1.209z"></path></g></svg>